<svg id="svg-source" height="0" version="1.1" 
  xmlns="http://www.w3.org/2000/svg" style="position:absolute; margin-left: -100%" 
  xmlns:xlink="http://www.w3.org/1999/xlink">


	<g id="tag" fill-rule="evenodd" stroke="black" stroke-width="0.7">
                <path d="M17.584,26.945c-0.649,1.112-1.204,2.026-1.583,2.644c-0.382-0.617-0.937-1.531-1.585-2.644
		c-2.69-4.598-7.199-12.899-7.199-16.878c0-4.842,3.939-8.781,8.784-8.781c4.842,0,8.781,3.939,8.781,8.781
		C24.782,14.046,20.272,22.348,17.584,26.945z
		M16.001,15.079c-2.765,0-5.013-2.246-5.013-5.012
		c0-2.762,2.248-5.01,5.013-5.01c2.762,0,5.011,2.248,5.011,5.01C21.012,12.833,18.763,15.079,16.001,15.079z"></path>
	</g>

	<g id="bell">
		<path d="M0 0h48v48H0z" fill="none"/>
		<path d="M18.8 21l9.53-16.51C26.94 4.18 25.49 4 24 4c-4.8 0-9.19 1.69-12.64 4.51l7.33 12.69.11-.2zm24.28-3c-1.84-5.85-6.3-10.52-11.99-12.68L23.77 18h19.31zm.52 2H28.62l.58 1 9.53 16.5C41.99 33.94 44 29.21 44 24c0-1.37-.14-2.71-.4-4zm-26.53 4l-7.8-13.5C6.01 14.06 4 18.79 4 24c0 1.37.14 2.71.4 4h14.98l-2.31-4zM4.92 30c1.84 5.85 6.3 10.52 11.99 12.68L24.23 30H4.92zm22.54 0l-7.8 13.51c1.4.31 2.85.49 4.34.49 4.8 0 9.19-1.69 12.64-4.51L29.31 26.8 27.46 30z"/>
	</g>

	<g id="light">
		<path d="M0 0h48v48H0z" fill="none"/>
		<path d="M14 22H2v4h12v-4zm4.34-6.49l-4.24-4.24-2.83 2.83 4.24 4.24 2.83-2.83zM26 2h-4v12h4V2zm10.73 12.1l-2.83-2.83-4.24 4.24 2.83 2.83 4.24-4.24zM34 22v4h12v-4H34zm-10-4c-3.31 0-6 2.69-6 6s2.69 6 6 6 6-2.69 6-6-2.69-6-6-6zm5.66 14.49l4.24 4.24 2.83-2.83-4.24-4.24-2.83 2.83zM11.27 33.9l2.83 2.83 4.24-4.24-2.83-2.83-4.24 4.24zM22 46h4V34h-4v12z"/>
	</g>

	<g id="camera">
		<path d="M23 44c2.21 0 4-1.79 4-4h-8c0 2.21 1.79 4 4 4zm13-12V21c0-6.15-4.27-11.28-10-12.64V7c0-1.66-1.34-3-3-3s-3 1.34-3 3v1.36C14.27 9.72 10 14.85 10 21v11l-4 4v2h34v-2l-4-4z"/>
		<path d="M0 0h48v48H0z" fill="none"/>
	</g>

	<g id="location">
		<path d="M24 4c-7.73 0-14 6.27-14 14 0 10.5 14 26 14 26s14-15.5 14-26c0-7.73-6.27-14-14-14zm0 19c-2.76 0-5-2.24-5-5s2.24-5 5-5 5 2.24 5 5-2.24 5-5 5z"/></svg>
	</g>
</svg>
